<?xml version="1.0" standalone="no"?>
<!DOCTYPE svg PUBLIC "-//W3C//DTD SVG 1.1//EN" "http://www.w3.org/Graphics/SVG/1.1/DTD/svg11.dtd">
<svg xmlns="http://www.w3.org/2000/svg">
<metadata>Copyright (C) 2017 by original authors @ fontello.com</metadata>
<defs>
<font id="panera" horiz-adv-x="1000" >
<font-face font-family="panera" font-weight="400" font-stretch="normal" units-per-em="1000" ascent="850" descent="-150" />
<missing-glyph horiz-adv-x="1000" />
<glyph glyph-name="arrow" unicode="&#xe800;" d="M325-19c-2 0-6 1-9 3-2 1-6 2-7 5-4 5-6 10-6 16s2 11 6 16l335 329-338 330c-3 4-6 10-6 16 0 7 3 12 6 17 5 5 10 7 17 7 6 0 11-2 16-6l354-346c2-3 3-5 5-8 1-2 1-6 1-9 0-3 0-6-1-8-2-3-3-5-5-8l-352-346c-2-3-5-5-8-7-2-1-5-1-8-1z" horiz-adv-x="1000" />

<glyph glyph-name="close" unicode="&#xe801;" d="M858-19c-3 0-7 1-8 4l-350 349-349-349c-5-5-11-5-16 0s-5 11 0 16l349 349-349 349c-5 5-5 11 0 16 5 5 11 5 16 0l349-349 349 349c5 5 11 5 16 0 5-5 5-11 0-16l-349-349 349-349c5-5 5-11 0-16-2-3-5-4-7-4z" horiz-adv-x="1000" />

<glyph glyph-name="my-information" unicode="&#xe802;" d="M500-14c0 0 0 0 0 0-65 0-129 18-185 52l-4 2c-28 20-38 45-38 59v2c2 30 12 58 31 82 37 51 91 90 152 110l5 1c10 2 18 6 27 9-39 15-104 50-104 116v41c0 33 12 63 35 85 22 23 52 35 85 35 0 0 0 0 0 0 32 0 62-12 85-35 22-22 35-52 35-85v-41c2-23-5-46-19-65-2-3-4-5-6-8l-9 9c1 1 4 4 5 6 13 17 19 37 16 58l0 41c0 29-11 56-31 76-20 20-47 32-76 32 0 0 0 0 0 0-29 0-56-12-76-32-20-20-32-47-32-76v-41c0-65 74-98 107-109 45-15 128-49 181-106l-9-9c-47 53-122 85-169 101-15-5-27-8-41-13l-5-2c-59-17-110-55-146-105-16-21-26-47-29-73l0-2c0-12 10-32 33-48l3-3c54-32 115-49 179-49 0 0 0 0 0 0 94 0 181 37 248 103 66 66 102 154 102 247 0 94-36 182-102 248-65 65-154 101-248 101-94 0-181-36-247-102-67-67-103-154-103-248 0-1-6-85 40-151l-10-8c-49 69-44 155-42 159 0 200 162 363 362 363 0 0 0 0 0 0 98 0 189-38 256-107 69-68 107-160 107-257 0-98-38-189-107-256-68-69-160-107-256-107z" horiz-adv-x="1000" />

<glyph glyph-name="navigation" unicode="&#xe803;" d="M846 580h-692c-6 0-11 3-16 6-5 5-7 10-7 17s3 11 7 16c5 5 10 6 16 6h691c6 0 11-2 16-6 5-5 7-10 7-16s-2-12-5-15c-5-5-10-8-17-8z m0-252h-692c-6 0-11 2-16 6-5 5-7 10-7 16s3 11 7 16c5 5 10 7 16 7h691c6 0 11-3 16-7 5-5 7-10 7-16s-3-11-7-16c-3-5-8-6-15-6z m0-254h-692c-6 0-11 2-16 6-5 5-7 10-7 16s3 12 7 17c5 5 10 6 16 6h691c6 0 11-3 16-6 5-5 7-10 7-17s-3-11-7-16c-3-4-8-6-15-6z" horiz-adv-x="1000" />

<glyph glyph-name="rewards" unicode="&#xe804;" d="M404-18c-13 0-24 7-31 18-4 5-5 11-5 18l0 127c0 6 5 11 11 11s11-5 11-11v-127c0-3 1-4 3-7 3-6 11-8 17-5l60 59c16 16 41 16 58 0l60-57c1-2 3-2 6-2 7 0 14 5 14 14l0 213c0 3 2 7 5 10 3 2 7 2 11 1 22-10 45-1 59 12 13 14 17 32 10 48-2 2-3 4-3 6-12 35 6 74 41 86 13 5 23 15 28 28 4 11 4 24-1 34-5 11-14 18-25 22-3 1-4 1-7 3-16 7-28 21-35 38s-5 35 3 52c6 12 6 27 0 40-5 11-15 18-26 22-12 4-24 3-34-2-3-2-5-3-6-3-35-12-74 6-87 41-5 13-15 23-27 28-24 9-49-4-58-28-1-2-1-3-2-6-16-34-56-47-90-31-13 6-28 6-40 0-11-5-19-15-23-26s-2-24 3-34c1-3 2-5 2-6 7-18 5-35-2-52-8-16-21-28-39-35-12-5-22-15-27-27-9-24 3-49 27-58 3-1 4-1 6-2 34-16 48-56 32-90-7-13-7-28 0-40 11-23 37-31 60-20 2 1 5 2 6 2 35 13 74-6 86-41 6-17 23-30 41-30 0 0 0 0 0 0 7 0 12-5 12-11 0-6-5-11-12-11-28 0-53 17-63 45-9 22-34 35-58 27-1 0-2-1-4-1-32-16-73-3-90 30-8 19-8 41 0 60 10 22 2 49-21 60-1 1-2 1-4 1-35 13-53 51-41 86 6 19 21 34 41 42 12 3 20 12 25 22 5 11 7 23 2 34 0 1-2 2-2 4-16 33-2 73 30 90 19 8 42 8 60 0 23-10 49-2 60 21 2 1 2 2 2 4 12 35 51 53 86 41 19-6 34-21 41-41 9-24 34-35 58-28 1 0 2 1 3 1 17 8 34 9 52 4 17-6 31-17 38-34 9-18 9-41 0-60-5-11-6-22-1-33 4-12 13-20 23-25 1-2 2-2 3-2 18-6 30-18 39-35 8-16 9-35 3-51-7-19-22-34-42-41-23-9-35-34-27-58 0-1 1-2 1-3 11-25 6-53-14-74-18-19-45-26-68-23v-197c-2-20-18-37-38-35-6 0-12 2-17 5-2 0-2 1-2 1l-61 59c-7 7-19 7-26 0l-59-60c0 0-1-2-1-2-6-3-13-5-20-5z" horiz-adv-x="1000" />

<glyph glyph-name="search" unicode="&#xe805;" d="M856-19c-2 0-6 1-7 4l-179 178c-26-27-57-47-92-60-7-3-13 1-15 6-3 6 1 12 6 15 35 12 66 34 91 61 0 0 0 1 1 1 0 0 0 0 0 0 0 0 0 0 2 2 55 55 87 132 87 210 0 165-134 298-297 298 0 0 0 0 0 0-80 0-154-31-210-87-57-56-88-131-88-210 0-164 134-298 298-298 6 0 11-5 11-11s-5-11-11-11l0 0c-177 0-320 144-320 320 0 85 33 166 93 226 60 60 142 94 227 94 0 0 0 0 0 0 176 0 320-144 320-320 0-81-32-160-88-220l179-179c5-5 5-11 0-16-3-2-5-3-8-3z" horiz-adv-x="1000" />

<glyph glyph-name="catering" unicode="&#xe806;" d="M513 101c-37 2-73 9-107 23-12 5-23 11-35 19 0 0-1 0-1 0-29-9-59-13-89-12 0 0 0 0 0 0-73 0-151 23-151 62 0 8 3 86 110 130 1 0 3 1 3 1-3 1-4 1-7 2-31 14-51 45-51 79 0 3 0 5 0 9 0 50 41 91 93 91 51 0 92-41 92-92v-7c0-40-26-67-56-82 0 0 0 0 1 0 15-5 30-13 44-23 5-3 6-11 2-16-3-5-11-6-16-2-11 8-25 15-39 20-8 3-17 6-26 8-11-2-21-5-31-10-75-31-95-83-95-108 0-15 54-39 129-39 27-1 55 2 81 11 12 4 20 10 24 18 3 8 2 17 0 23-3 7 1 13 6 15 6 3 12-1 15-6 5-15 5-30-1-42-3-5-7-12-14-17 6-3 14-7 20-10 31-12 64-20 97-21 84 0 139 36 155 74 3 5 9 7 15 5 7-3 8-9 5-15-16-41-73-88-173-88z m-234 382c-39 0-70-32-70-70 0-3 0-5 0-8 0-26 15-49 37-59 12-5 23-8 34-12 34 10 68 32 68 71v8c1 38-30 70-69 70z m460-342c-6 0-11 5-11 12s5 11 11 11c89 0 107 27 107 32 0 18 0 70-86 103-6 2-11 4-17 6-14 5-28 10-42 16-26 12-43 38-43 68 0 1 0 5 0 7 0 43 35 78 78 78s79-35 79-79v-5c1-16-4-32-15-45-4-5-11-5-16-1-5 4-5 11-1 16 7 8 10 19 10 29l0 6c0 31-25 56-57 56s-56-25-56-56c0-2 0-4 0-6 0-21 11-39 30-48 13-6 26-11 40-15 6-2 11-3 18-6 67-25 101-66 101-122 0-20-28-57-130-57z m-89 128c-5 0-9 1-12 5-34 34-77 56-122 69l0 0 0 0-32-12c-30-10-58-27-80-50-4-5-11-5-16 0-5 4-5 12 0 17 25 25 55 45 88 56l8 2c-31 15-75 45-75 97v40c0 58 47 107 107 107s108-47 108-107v-39c1-40-23-76-59-91-4-2-9-4-12-5 37-14 71-35 100-63 6 6 13 11 21 15 5 3 12 1 15-4 2-5 1-12-4-15-7-3-14-8-20-15-5-5-10-7-15-7z m-135 307c-46 0-85-37-85-85v-40c0-52 65-78 85-85 13 5 26 10 39 15 29 13 46 40 45 70l0 0v39c1 48-38 86-84 86z" horiz-adv-x="1000" />

<glyph glyph-name="delivery" unicode="&#xe807;" d="M756 80h-43c-25 0-45 20-45 45v29c0 2-2 6-3 7s-5 4-7 4l-314 0c-6 0-11-5-11-11v-29c0-25-20-45-44-45h-45c-25 0-44 20-44 45v58c0 6 0 13 0 23-1 38-2 95 8 127l2 8c3 10 6 20 9 29-14-4-30-4-45 0-25 6-44 31-41 56 1 10 10 43 67 42 20-2 35-7 43-18 6-9 8-19 7-31 9 12 15 27 20 46 1 8 4 15 5 24 15 66 29 134 91 134h260c67 0 80-58 93-113 2-10 5-19 7-29l2-7c11-44 25-83 80-85 22 0 37 15 38 30 0 15-16 25-43 25-9 0-17-1-24-4-6-2-13 1-15 6-3 7 0 13 6 15 10 4 21 7 33 5 48-1 65-27 65-48-2-27-27-53-62-52-76 3-92 68-101 102l-1 6c-3 10-5 20-8 30-13 60-23 95-71 95h-259c-40 0-52-44-68-116-2-8-4-17-5-24-9-36-25-63-48-79-4-14-9-30-14-47l-2-8c-9-27-8-82-6-119 0-10 0-17 0-23v-58c0-12 10-22 22-22h45c13 0 23 10 23 22v29c0 19 15 34 33 34h313c0 0 1 0 1 0 9 0 18-4 24-10 6-7 10-15 9-24l0-29c0-12 10-22 22-22h44c12 0 21 10 21 22v95c0 16-2 60-4 79 0 1 0 1-1 1-6 1-10 6-10 13 1 6 6 10 13 10 11-2 20-12 21-23 1-15 4-61 4-79v-95c-3-26-23-46-47-46z m-561 364c-24 0-39-8-41-21-1-13 7-28 24-32 12-2 30-3 47 5 4 19 5 33 0 40-4 5-12 8-25 9-2-1-4-1-5-1z m129-223c-1 0-1 0-3 0 0 0 0 0 0 0-22 0-36 9-43 17-10 10-15 22-15 37 0 25 17 51 52 51h370c5 0 10 0 14-1 1 0 2 0 4-1 22-8 35-28 35-49 0-14-5-27-15-37-8-8-22-17-44-17-38 0-68 25-68 55 0 12 4 20 12 28h-308c-20 0-30-14-30-29 0-9 3-16 9-21 6-6 16-10 27-10 15-1 30 6 38 19 4 5 10 6 15 2 5-4 6-10 2-15-10-17-30-29-52-29z m371 82c-30 0-61-8-61-27 0-15 17-32 44-32 11 0 21 4 27 10 5 5 9 14 9 21 1 13-5 24-19 28z m-22 82h-327c-6 0-11 5-11 11s5 12 11 12h327c6 0 11-5 11-12s-5-11-11-11z" horiz-adv-x="1000" />

<glyph glyph-name="order-from-table" unicode="&#xe808;" d="M743-19c-7 0-12 5-12 11v678c0 16-12 24-23 26-23 4-50-13-64-57-8-26-29-149-44-230-6-36-12-68-15-80-1-6 0-9 1-11 5-7 18-10 37-12 25-1 46-21 46-47l0-206c-1-17 4-32 15-43 4-5 4-11 0-16-5-4-11-4-16 0-15 16-23 37-22 59l0 205c0 13-11 25-25 25-26 1-43 7-52 20-4 5-9 15-6 28 2 13 7 43 15 80 15 87 36 205 45 233 16 56 56 77 88 72 27-3 44-23 44-48v-678c-1-4-6-9-12-9z m-369 1c-18 0-34 7-45 19-14 15-21 38-20 60 0 7 6 12 12 10 7 0 12-6 10-12-1-15 5-33 14-43 8-7 18-12 29-12 17 0 29 4 35 10 9 9 7 25 7 40 0 4 0 7 0 10 0 1-2 166-2 239 0 25-16 42-39 57-22-15-40-32-40-57v-168c0-6-5-11-11-11s-11 6-11 12v167c0 31 17 53 41 70-11 6-23 11-34 16-40 19-74 34-74 64l13 220c2 31 29 46 52 45 25-2 43-18 43-40 0-12 0-44 1-74 0-28 1-55 1-64 0-6-5-11-11-11s-11 5-11 11c0 9 0 35-1 63 0 31-2 63-2 75 0 16-17 17-20 17-13 0-28-7-30-25l-12-219c0-15 31-28 61-42 15-8 31-14 46-23 15 9 32 17 45 23 30 14 62 27 62 42l-13 219c0 8-2 14-7 18-5 3-13 6-20 6-9 0-25-4-25-18 0-11 0-42 0-73 0-29 0-55 0-64 0-6-5-11-12-11s-11 5-11 11c0 9 0 36 0 64 0 30 0 62 0 73 0 23 20 40 48 40 12 0 25-3 33-11 12-9 17-21 17-35l12-219c0-30-34-46-74-63-11-5-22-10-33-17 22-17 40-38 40-70 0-72 2-237 2-238 0-4 0-7 0-10 0-19 1-42-14-57-11-9-28-14-52-14z" horiz-adv-x="1000" />

<glyph glyph-name="rapid-pick-up" unicode="&#xe809;" d="M734-19c-45 3-341 3-458 0-20 1-33 19-32 38 0 4 2 17 10 51 6 28 12 60 17 85 2 6 7 10 13 9 6-1 10-6 9-13-4-25-12-60-18-86-5-20-9-44-10-47 0-8 4-13 11-14 115 2 414 2 458 0 2 0 4 1 6 2s3 4 3 7c-8 118-29 462-29 466-1 7-11 12-20 12l-234 9c-19 0-30-2-32-16-3-13-2-23 3-30 5-6 14-10 27-11l127-3c13 0 25 6 33 18 3 5 10 6 15 3 5-3 6-10 3-15-11-17-31-27-51-27l-129 2c-20 2-33 8-43 20-9 12-13 28-9 48 6 35 41 35 55 35l2 0 232-8h0c18 0 40-12 42-33 0-4 20-348 29-467 0-8-3-16-8-22s-12-10-21-12l-1-1z m-488 235c-3 0-6 2-8 4-4 5-4 11 1 16 21 19 22 33 24 53 0 4 1 9 1 14 0 12 6 135 10 168 0 19 12 37 31 40 10 3 23 4 31 4l4 0c21 3 25 8 28 21 1 5 1 10 2 15 1 10 3 23 8 44 7 38 23 123 133 121 117-1 127-100 130-132l3-23c1-6-4-11-10-12-6-1-11 4-13 10l-2 22c-6 52-24 112-109 113-80 1-101-49-111-104-4-21-5-32-6-42-2-5-2-10-3-15-5-32-25-38-47-40l-4 0c-9-2-20-3-29-4-9-1-14-9-14-18l0-1 0-1c-2-31-8-163-10-168 0-6-1-10-1-13-1-23-4-44-32-69-2-1-4-3-7-3z" horiz-adv-x="1000" />

<glyph glyph-name="facebook" unicode="&#xe80a;" d="M555-8h-149v358h-75v124h75v74c0 100 43 160 162 160h100v-124h-63c-46 0-50-18-50-49v-61h113l-13-124h-100l0-358 0 0z" horiz-adv-x="1000" />

<glyph glyph-name="foursquare" unicode="&#xe80b;" d="M315 708c-35 2-64-24-66-58 0-2 0-5 0-6v-606c0-28 15-39 24-42 16-6 33-2 45 10 0 0 177 209 180 213s5 5 8 5h115c49 0 57 35 62 55 3 17 51 261 66 339 12 58-3 91-58 91l-376-1z m366-430c4 17 52 261 67 338l-67-338z m-12 326l-16-84c-4-10-13-17-24-19h-146c-15 2-28-11-29-26 0-1 0-1 0-2v-19c-1-15 11-28 26-29 1 0 1 0 3 0h123c13-1 22-12 20-24 0 0 0 0 0-1-2-12-15-75-16-82-2-10-12-19-22-19h-100c-15 2-29-5-37-18-12-15-123-151-123-151s-3-1-3 0v475c0 13 10 23 23 24h302c11 0 19-10 19-21 0-2 0-3 0-4z" horiz-adv-x="1000" />

<glyph glyph-name="instagram" unicode="&#xe80c;" d="M788 131c0-37-32-68-69-68h-438c-37 0-68 31-68 68v293h106c-40-100 9-214 109-254s213 9 253 109c19 46 19 99 0 146h107v-294z m-390 293c40 56 118 69 175 27s68-118 27-175c-40-56-119-68-175-27-32 24-51 61-51 101 0 26 9 53 24 74z m361 201h16v-121h-121v121h105z m-40 83h-438c-76 0-137-62-137-138v-439c0-76 61-137 137-137h439c76 0 138 61 138 137v438c-2 76-63 137-139 139l0 0z" horiz-adv-x="1000" />

<glyph glyph-name="pinterest" unicode="&#xe80d;" d="M143 350c0-141 83-270 213-327-1 27 0 55 7 82 7 29 46 195 46 195-8 18-11 38-11 56 0 53 31 93 68 93 33 0 49-25 49-54 0-32-21-81-31-126-8-30 10-60 40-68 5-1 11-2 16-1 68 0 114 88 114 190 0 79-53 138-149 138-109 0-176-82-176-172-1-25 7-50 24-70 6-5 7-12 5-20-2-6-7-22-8-28-1-7-7-12-15-10-1 0-2 0-4 1-50 20-73 75-73 136 0 101 85 224 255 224 136 0 226-99 226-205 1-141-76-246-191-246-39 0-75 21-88 45 0 0-21-83-25-99-9-28-20-53-36-76 189-57 387 52 444 241s-53 387-242 444-387-53-443-242c-10-32-15-67-15-101z" horiz-adv-x="1000" />

<glyph glyph-name="twitter" unicode="&#xe80e;" d="M773 569c31 21 53 52 65 89-29-19-60-33-94-39-26 32-65 50-106 51-82 0-147-72-147-161 0-13 2-25 4-36-121 8-231 70-302 168-14-25-20-52-20-81-2-52 23-102 65-134-24 2-47 8-67 20v-2c0-79 50-144 118-159-21-6-44-7-66-2 16-64 72-109 137-113-50-45-115-69-182-70-12 0-24 1-35 3 65-48 143-73 225-73 270 0 417 246 417 460v21c29 24 54 52 74 84-28-14-56-22-86-26z" horiz-adv-x="1000" />

<glyph glyph-name="youtube" unicode="&#xe80f;" d="M639 350l-234-137v275l234-138m219-129v258c0 0 0 124-123 124h-469c0 0-123 0-123-124v-256c0 0 0-124 123-124h469c-1-1 123-1 123 122" horiz-adv-x="1000" />

<glyph glyph-name="bakery" unicode="&#xe810;" d="M793 96c-38 0-54 20-72 47-20 30-38 46-55 48-17 3-60 18-63 43-2 9 1 21 23 31 59 28 152 111 150 130-1 19-25 56-72 83-5 2-8 10-5 15s10 7 15 5c52-29 81-73 84-102 2-40-117-131-163-152-9-4-10-6-10-6 0-7 25-22 45-24 24-4 46-23 70-59 18-25 28-37 55-36 14 0 28 10 38 25 18 29 31 90 1 165-3 6-6 10-9 10-4 0-10-4-12-9-23-32-53-60-88-80-5-2-12-1-15 4s-1 12 4 15c31 17 59 44 80 74 6 10 20 18 34 17 8-1 20-6 27-25 33-84 20-151-2-186-14-21-34-34-55-35-2 2-4 2-5 2z m-585 0c-2 0-3 0-4 0-21 2-41 14-55 35-24 35-36 103-4 187 8 18 19 23 28 25 13 1 27-9 33-18 20-30 48-55 79-72 5-3 8-10 4-15-3-5-10-8-15-4-35 20-65 47-86 80-3 4-9 9-13 9-2 0-6-4-9-12-30-75-18-136 2-165 10-15 23-25 37-25 28-1 39 12 55 37 24 36 46 55 70 58 20 0 45 15 45 22 0 0-1 3-10 7-46 21-166 111-162 153 1 25 13 71 75 105 5 2 12 1 15-5 2-5 1-13-5-15-52-29-62-67-64-87-1-18 91-102 150-130 21-10 25-22 24-31-4-25-48-40-64-42-16-3-35-19-55-49-19-28-35-48-71-48z m221 69c-14 0-28 3-40 8-6 2-9 8-6 15 2 6 8 8 15 6 16-6 33-8 50-4 10 1 15 4 16 10 1 4 0 10-4 13-57 51-116 197-124 265-8 81 37 105 80 117 55 14 114 14 169 0 61-17 88-55 80-117-7-75-70-219-124-265-3-4-2-8-2-9 1-5 6-11 16-13 11-2 24-1 34 3 6 2 12 0 15-5 2-6 0-13-5-15-15-6-33-9-49-5-16 4-29 15-32 29-3 12 0 23 10 32 48 43 108 181 116 251 5 52-14 79-64 94-51 13-105 13-156 0-44-12-70-32-64-94 8-70 66-207 116-251 10-9 14-24 10-36-5-14-17-23-35-25-8-4-15-4-22-4z" horiz-adv-x="1000" />

<glyph glyph-name="breakfast" unicode="&#xe811;" d="M471 44c-136 0-288 45-333 149-3 6 0 12 6 15 6 2 12 0 15-7 36-83 171-138 327-135 198 5 299 90 329 169 3 6 4 11 5 18-1-2-2-2-4-3-5-2-8-6-11-7-129-92-331-134-480-100-90 20-159 67-196 135-3 5-1 12 4 15 5 2 12 1 15-4 35-63 97-105 181-125 144-33 337 7 462 96 4 3 8 5 13 9 5 2 10 6 15 10 4 2 7 4 12 2 4-1 8-3 10-6 2-2 3-5 3-9l0-1c-1-12-4-26-9-37-47-130-211-182-347-184-5 0-10 0-17 0z m-151 146c-14 0-29 5-40 14l-132 99c-5 3-8 8-8 13-1 5 1 12 4 15 2 3 5 5 9 7 6 2 12-2 15-7 1-5 0-10-4-12l130-98c10-7 24-11 36-7l528 111c1 0 2 1 3 3 3 2 3 7 0 10l-27 25c-5 3-5 11 0 16 4 5 11 5 16 0l28-25c12-11 12-30 1-41-4-5-10-8-16-9l-528-110c-5-4-10-4-15-4z m125 80c-49 0-99 5-142 15-119 28-185 90-188 175-2 69 43 124 129 159 159 65 451 47 554-65 41-44 47-99 17-156-2-5-10-8-15-5-5 2-7 10-5 15 25 50 20 93-14 131-90 97-361 127-528 59-54-23-118-64-115-138 2-95 93-136 170-154 171-38 400 9 433 72 3 5 10 7 15 5 5-3 8-10 5-15-31-58-173-98-316-98z m33 174c-54 0-105 7-135 19-34 12-37 28-33 40 18 50 170 45 274 21 6-1 10-8 9-14-2-6-8-10-14-9-130 29-240 17-248-7 2-6 35-23 104-28 91-7 195 9 215 54 3 6 9 9 15 6 6-2 9-8 6-15-22-50-111-67-193-67z" horiz-adv-x="1000" />

<glyph glyph-name="drinks" unicode="&#xe812;" d="M570-50c-147 0-219 84-261 173-6-10-16-18-28-22-26-8-53-2-78 20-48 42-79 124-68 180 6 30 21 50 46 59 15 5 29 5 42-1 30-15 46-61 65-120 2-9 6-18 8-26 0 0 0 0 0 1-1 11-3 25-6 40-7 49-17 116-22 160-4 31 10 75 90 109 1 13 5 26 12 38 31 52 109 78 213 73 76-4 115 14 125 31 5 8 5 15 0 23-12 20-49 40-109 40-6-2-11 3-11 10s5 11 11 11c61 0 111-20 129-51 8-15 8-32 0-45-19-30-72-45-145-42-94 4-165-18-192-61-6-10-10-21-10-32 0-2 0-3 0-4 0-10 4-20 9-29 19-35 76-71 180-72 125 0 166 25 168 33 0 5-18 19-74 24-68 4-135 1-203-9-6-1-12 4-12 10-1 7 4 13 10 13 69 11 139 14 207 10 62-5 97-23 95-48-1-35-73-56-190-55-96 0-170 32-200 84-5 9-7 18-10 26-36-16-73-42-68-81 5-44 15-111 22-160 3-15 5-29 6-40 4-25 4-47 2-65 38-91 103-180 250-180 87 0 153 24 198 70 77 78 73 205 72 273l0 1c0 11 5 20 12 22 6 2 13-1 14-7 1-5 0-10-4-13 0 0 0-1 0-1l0-1c1-71 5-205-77-289-52-54-124-80-218-80z m-369 391c-3 0-8-1-12-2-18-6-28-20-33-41-8-49 19-124 60-159 14-11 35-24 58-16 12 3 19 15 22 28-11 29-21 57-30 82-17 51-31 96-53 106-3 1-7 2-12 2z m363-15c-100 0-194 23-226 55-9 9-14 19-14 29 0 6 5 11 11 11s11-5 11-11c0-4 3-7 8-12 29-29 127-50 222-49 134 2 262 44 267 87 2 17-4 32-19 45-58 54-239 74-385 43-6-1-13 2-14 9-1 6 3 12 9 13 139 29 335 17 405-48 20-19 29-40 25-64-9-64-154-104-289-106-2-2-7-2-11-2z" horiz-adv-x="1000" />

<glyph glyph-name="panera-kids" unicode="&#xe813;" d="M705-25c-5 0-10 4-11 10-4 21 20 53 42 58 30 7 49 16 87 50 8 8 18 17 28 26 42 36 84 75 100 100 10 14 9 25 4 30-4 4-14 4-24-5l-7-6c-20-18-43-39-66-47-17-5-34 2-42 14-3 6-3 20 10 33 33 28 63 62 89 98 9 14 5 24-2 29-7 4-17 5-24-6-13-18-63-79-91-100-8-6-19-5-27 1-7 6-10 15-6 24 6 14 16 34 29 54 15 27 32 57 39 77 7 20-2 31-12 35-10 4-23 0-28-15-7-16-38-90-59-131-10-20-25-23-35-20-10 2-16 12-15 24 1 18 6 45 10 70 4 21 6 40 7 52 2 13-3 21-15 23-11 1-23-5-27-22-13-46-23-93-31-140-2-6-7-10-13-8-6 1-10 6-9 12 8 48 19 95 32 143 6 28 31 41 52 37 19-2 36-19 34-47-1-14-5-34-9-54-4-25-9-51-10-69 1 1 5 3 8 9 21 40 52 112 58 129 12 27 38 35 58 27 20-7 36-30 25-64-8-21-24-51-40-81-10-17-19-35-25-47 26 21 72 77 84 92 15 21 38 23 53 11 17-11 25-35 9-60-26-38-57-72-92-103-2-2-5-4-4-7 1-2 7-5 15-3 19 6 39 25 57 41l8 6c20 19 42 16 54 6 12-11 17-33 0-58-18-28-62-67-104-104-10-9-20-18-29-26-41-38-64-48-96-55-11-3-26-24-25-33 1-6-4-13-10-13-3 3-4 3-4 3z m-202 14c-3 0-4 0-7 0-6 0-11 5-11 11 0 6 5 10 11 11 27-1 45 7 53 19 5 8 4 18 0 25-41 65-69 149-81 249-5 40 18 64 42 69 24 3 53-9 60-42 18-72 44-97 66-117 7-5 13-11 18-16 11-13 17-28 20-44 2-23-10-35-23-38-20-3-46 15-56 59-1 6 3 13 9 14 6 1 12-3 14-9 7-34 23-42 30-41 3 1 5 6 5 12-2 12-7 23-14 32-5 5-10 10-16 15-23 20-54 48-73 128-5 20-21 27-34 24-13-2-27-15-25-44 13-97 39-177 79-240 10-15 10-32 1-48-12-18-37-29-68-29z m-124 165c-5 0-9 2-10 7-24 58-18 110 20 154 69 83 85 125 107 195 8 26 0 41-11 46-10 4-22-1-30-18-26-62-56-85-79-100-7-5-15-10-22-14-20-11-33-19-40-39-3-10 0-19 6-21 5-3 11 1 16 10 4 5 10 6 15 2 5-3 7-10 3-15-15-22-33-23-45-17-16 7-24 29-18 47 9 29 29 40 50 53 7 4 14 7 22 12 20 14 46 35 70 92 12 30 38 37 58 30 20-8 38-34 25-74-22-70-40-118-111-203-31-37-36-81-16-131 2-6 0-12-6-15-2-1-3-1-4-1z m-181 40c-3 0-5 1-8 2-5 4-5 12-1 17 30 33-8 83-48 132-16 20-35 39-52 58-29 30-55 56-65 80-13 27-3 48 10 57 16 11 37 9 52-5 2-1 5-5 8-7 7-9 20-20 32-32 5-3 5-11 2-16-4-5-12-5-17-1-12 11-25 24-33 32-3 3-5 5-8 8-9 7-17 7-24 2-7-6-8-16-2-30 9-20 34-46 61-73 19-19 38-39 54-59 34-41 91-111 46-163-1-1-4-2-7-2z m-39 269c-1 0-4 0-5 1-5 2-8 10-5 15 1 4 1 7 0 10-28 32-50 69-69 107-5 9-6 20-4 32 3 11 10 20 20 26 10 5 22 7 33 4 11-3 20-10 26-20 1-2 1-3 3-4 16-35 35-68 57-99 1-1 3-1 4 0 1 1 1 1 1 3-2 16-9 40-15 62-6 24-12 48-15 65-5 35 16 55 39 59 22 4 49-9 54-38 1-6 2-16 3-30 3-28 7-71 15-98 2-5 4-8 5-8 2 0 4 1 4 5 6 38 11 75 14 113 2 30 25 41 46 41 23-1 46-19 45-49-2-46-9-91-17-136-2-6-8-10-14-9-6 1-10 8-9 14 9 44 15 89 18 132 0 17-13 24-24 25-10 0-21-3-23-20-2-38-6-77-13-115-3-12-13-22-25-22-5 0-20 0-28 22-10 32-14 75-16 104-1 13-3 23-3 28-2 16-16 21-28 20-12-3-24-12-20-33 2-16 8-40 15-62 6-24 12-49 15-67 1-8-3-17-10-22-12-9-28-8-37 4-23 32-42 67-60 103 0 2-1 2-1 3-2 5-7 7-12 9-5 0-10-2-15-4-5-3-8-8-9-13s-1-10 1-15c18-37 40-72 66-103 0 0 2-2 2-2 6-10 7-22 1-33-3-4-6-5-10-5z" horiz-adv-x="1000" />

<glyph glyph-name="pasta" unicode="&#xe814;" d="M196-75c-11 0-18 5-23 10-18 17-14 51-3 74 10 17 13 31 9 39-4 6-15 8-24 8-15 0-29 10-34 25-6 20 3 42 24 59 1 1 1 1 1 1 2 7-25 27-56 39-21 9-35 23-36 40-1 9 1 26 25 41 41 25 205-12 246-45 6-5 14-6 19-5 6 3 9 10 10 15l1 9c8 50 19 114 48 159 13 21 40 35 65 32 23-1 43-16 56-41 2-5 0-12-5-15-6-2-13 0-15 5-9 18-21 28-38 29-17 1-35-9-45-23-27-41-36-101-43-150l-2-8c-2-17-11-28-23-33-13-5-29-2-42 8-40 31-193 61-221 43-5-3-15-11-14-20 2-7 10-16 23-20 2-1 65-25 70-56 1-9-3-16-10-22-16-13-19-27-16-34 2-6 7-10 13-10 22-1 35-8 43-20 9-15 5-35-9-60-9-17-10-39-1-47 7-7 22 0 31 5 44 27 79 64 101 111 3 5 10 7 15 5 5-3 8-10 5-15-25-50-62-92-110-121-15-10-26-12-35-12z m312 133c0 0-2 0-2 0h-18c-7 0-12 5-12 11s5 11 12 11h18c0 0 2 0 2 0 56 0 87 15 92 30 4 11-5 23-12 30l-10 10c-30 28-53 49-34 79 0 1 1 2 1 4 9 21-2 45-24 52-6 3-8 9-6 15 3 6 9 9 15 6 16-6 29-18 35-33s8-33 1-49c-1-3-2-5-3-8-9-12-2-21 30-50 3-3 7-6 11-10 25-23 22-43 17-55-11-27-53-43-113-43z m-89 13c-1 0-3 0-4 0-15 5-29 14-39 27 0 1-1 2-1 2-1 0-1 0-2-1-7-3-17-5-28-6-1 0-1 0-2 0-38-5-93-4-123 10-17 8-27 22-25 37 1 15 15 28 35 33 26 6 75-10 103-33 10-9 16-16 18-24 5 2 10 3 13 4 1 0 2 1 2 1 0 3 0 5 0 8 3 35 43 75 65 92 25 20 44 17 54 5 13-15 9-46-20-72-21-18-45-33-70-45 8-8 16-14 26-16 7-2 9-9 8-14 0-4-5-8-10-8z m-178 80c-2 0-5 0-7-1-11-2-16-9-18-12 0-5 4-12 13-15 21-10 65-12 97-9-2 2-5 6-8 10-20 16-57 27-77 27z m224 63c-4 0-10-3-19-9-25-20-51-50-56-72 21 11 41 25 61 40 20 18 22 36 18 41-1 0-3 0-4 0z m295-16c-19 0-40 16-47 22-33 26-65 95-89 145-9 18-15 33-20 41-14 25-13 54 4 64 6 4 25 11 48-21 25-34 45-45 57-44 3 0 3 1 5 4 2 5 0 16-9 27-4 5-3 13 2 17 5 3 13 2 17-3 12-17 17-36 11-50-4-10-13-15-23-16-22-3-50 16-76 52-10 15-17 17-17 17 0 0-2-2-3-4-2-6-1-19 5-31 5-10 13-25 21-43 22-45 55-115 83-137 22-19 34-19 37-18 5 4 5 25 0 35-10 24-10 41 0 50 13 13 33 4 39 0 11-5 20-5 23-1 3 5 2 19-7 32-17 25-21 68-7 89 7 13 20 19 34 16 8-1 16 0 18 4 3 5 2 15-7 29-10 14-13 29-8 44 5 16 20 30 38 35 12 3 37 18 40 33 1 10-5 20-21 30-55 38-204-10-232-43-16-22-25-32-36-29-11 2-14 12-17 26-2 3-2 5-3 9-7 27-66 136-110 162-12 8-22 9-26 7-4-3-11-12-9-49 3-43 1-55-24-69-2-1-5-2-7-4-11-6-18-8-10-50 2-11-1-26-11-41-13-19-34-37-57-41-11-1-25-14-23-23 0-7 16-16 51-17 20-1 109 9 136 21 5 3 13 0 15-5 3-6 0-12-5-15-34-15-125-24-146-24-59 4-71 24-73 40-1 22 23 43 44 47 14 2 30 15 41 31 8 11 9 20 8 24-9 51-1 63 22 75 3 1 4 2 7 3 13 8 15 9 12 48-2 37 4 60 19 70 12 7 29 6 50-6 51-29 112-144 121-175 1-4 1-7 3-9 0-1 1-4 1-5 2 2 6 7 12 15 32 41 197 92 262 49 28-20 32-39 30-53-5-29-39-47-55-52-10-3-19-12-23-22-2-7-1-16 5-23 14-19 18-39 9-53-4-7-15-19-40-15-5 1-9-1-11-6-9-15-5-46 7-65 15-21 18-45 6-60-5-6-18-19-48-5-12 5-15 4-15 4 0-2 0-9 6-25 5-12 11-48-8-63-13 0-20-2-26-2z m-14 286c-6 0-12 0-20 1-33 3-68 4-103 1-13-1-28 3-44 8 0 0-1 0-3 0-1 0-2 1-3 1-33 13-69 38-89 66-19 28-11 58 5 70 14 10 37 12 61-17 31-39 46-73 43-103 10-3 20-5 27-3 36 1 71 1 108-2 31-3 43 3 46 7 1 2 0 5-1 7-7 10-25 18-49 14-16-3-31-8-45-15-5-3-13-1-15 5-3 5-1 12 5 15 16 9 34 14 51 17 34 7 60-6 71-22 8-10 8-23 3-33-5-7-19-17-48-17z m-235 134c-2 0-5-2-6-3-7-5-11-22 0-39 15-22 41-41 68-53 0 22-13 50-38 80-9 10-17 15-24 15z" horiz-adv-x="1000" />

<glyph glyph-name="salads" unicode="&#xe815;" d="M284-13c-3 0-5 2-8 2-22 10-18 64 9 124 30 65 100 180 231 206 27 5 63 10 69-11 9-32-69-73-127-92-9-2-18-3-27-3-6 0-11 5-11 11 0 6 5 11 11 11 0 0 0 0 2 0 6 0 12 1 18 3 67 22 105 52 112 63-4 2-15 3-42-3-122-25-187-133-216-194-21-48-24-80-20-91 3 2 8 8 13 21 42 92 115 72 167 59 15-4 30-9 43-9 153-16 215 47 230 66 3 5 11 6 16 3 5-4 6-12 2-17-45-58-138-87-248-77-15 1-30 5-48 10-55 15-106 29-141-46-14-28-25-36-35-36z m-131 104c-5 0-9 3-12 8-2 6 2 12 8 14 24 8 39 18 45 33 14 30-3 79-31 155-38 102-9 178 31 215 24 23 52 34 79 33 0 0 0 1 0 1 3 13 8 25 15 36 35 74 100 122 172 125 44 3 85-12 109-37 46 32 97 42 146 29 68-20 118-85 121-158 3-32-5-62-21-89 35-28 51-76 41-125-13-67-72-122-158-145-52-13-90-11-105 5-7 7-9 15-5 24 6 19 35 35 76 43 16 5 35 5 54 1 6-1 10-8 8-14-1-6-7-10-13-9-14 4-29 3-43-1-40-7-57-21-60-27 0-2 0-2 0-2 6-6 34-11 84 2 111 28 137 98 142 127 8 40-3 79-32 103-20-24-46-45-81-60-58-27-105-15-118 11-9 17-1 45 45 69 55 27 106 31 146 10 14 22 20 47 18 75-4 61-49 120-105 137-28 9-74 13-126-25 13-25 11-55-5-84-25-43-49-50-62-48-12 0-22 7-27 18-9 19-4 45 14 68 15 20 31 36 47 51-20 20-52 31-90 29-31-1-107-16-152-113-5-11-10-22-14-33 0 0 0 0 0 0 19-8 49-32 50-97 0-25-9-43-26-51-13-6-28-4-39 6-24 22-29 67-14 125 0 0 0 0 0 0-19 0-39-8-56-26-34-31-59-100-25-190 30-82 49-134 30-172-10-20-28-35-59-45 0-2-1-2-2-2z m586 370c-24 0-51-7-79-21-30-15-39-30-35-39 6-13 41-21 88 0 30 14 53 32 71 52-14 5-29 8-45 8z m-450 62c-15-58-6-92 7-103 5-4 10-5 15-4 7 3 13 13 13 32-1 37-14 63-35 75z m275 121c-14-13-29-28-43-46-13-19-16-37-11-45 3-7 6-7 8-7 8 0 23 10 40 38 12 22 13 42 6 60z m-306-514c-3 0-5 1-7 3-5 3-6 10-2 16 20 29 25 65 14 97-25 67-20 114-4 129 6 6 15 9 22 5 19-7 32-42 35-99 2-11 4-15 4-15 9-2 25 9 44 28-1 24 5 49 16 69 15 27 34 53 55 77 25 29 63 53 80 38 14-12 8-34-20-68-94-116-150-176-184-166-12 4-18 16-20 35-3 56-15 75-20 79-5-7-15-43 10-105 14-40 8-84-17-119 1-3-3-4-6-4z m243 331c-7-1-27-10-47-33-20-23-38-48-53-75-6-12-10-23-12-34 35 37 72 84 91 106 18 21 21 31 21 36z" horiz-adv-x="1000" />

<glyph glyph-name="sandwiches" unicode="&#xe816;" d="M286 11c-25 0-48 2-68 4-59 9-112 38-149 83-4 5-4 11 1 16 5 4 13 2 16-1 34-42 82-68 134-75 186-25 568 68 701 172 53 41 52 84 44 120-11 30-36 51-67 59-5-3-10-4-15-8-24-12-33-32-42-52-8-20-17-41-42-56-29-17-55-4-81 10-23 11-45 22-74 22-30 0-35-14-45-35-10-21-21-47-58-65-43-21-70-4-93 13-18 12-33 22-55 18-29-5-43-16-58-28-15-13-32-28-66-39-54-18-85 19-111 47-12 13-23 24-34 33-34 22-60 21-81-3-17-18-15-30 6-48 5-4 5-12 1-17-4-5-11-5-16-1-23 20-42 45-9 81 16 19 53 45 111 7 14-9 27-23 38-37 26-28 49-53 87-41 30 10 45 23 60 35 17 14 34 28 69 34 33 6 54-9 71-21 22-15 39-27 72-12 28 14 37 34 47 54 11 24 23 49 66 49 35 0 63-14 84-25 26-14 43-21 60-11 18 10 25 26 33 45 8 22 20 47 51 63 5 3 11 5 16 8 1 1 4 2 6 2 9 4 17 7 23 8 25 9 37 12 49 45 1 4 1 6 0 7-2 3-8 5-18 7-6 0-11 6-10 12s6 11 13 10c16-1 27-7 33-16 4-5 7-15 3-28-14-40-34-48-58-56 25-14 45-35 55-62l0-2c10-41 13-93-51-143-122-95-445-182-649-182z m-25 97c-63 0-122 22-157 35l-5 2c-6 3-9 9-6 15 2 6 8 9 15 6l5-2c36-14 92-34 153-34 212 5 484 88 625 165 17 9 25 18 27 25 0 8-9 15-15 20-5 4-7 10-3 16 4 5 10 7 16 3 22-15 25-29 24-39-1-16-14-30-37-44-144-78-422-163-637-167-2-1-3-1-5-1z m-50 180c-55 0-75 6-106 16-6 2-9 9-7 14 2 6 8 8 13 7 38-12 55-17 139-15 128 4 530 105 635 178 16 12 18 40 18 45 0 55-35 93-105 120-54 20-118 12-149 5-5-2-9-3-13-4 70-24 99-56 102-79 1-12-5-24-15-29-20-11-67-7-127 42-21 17-21 35-18 43 1 5 2 9 6 14-11 1-23 1-34 0-59-6-110-20-144-36-1-1-3-1-5-3 27-3 52-10 74-21 53-27 83-56 83-80 0-10-7-20-17-24-25-12-81-1-148 52-24 18-35 36-34 55 0 0 0 1 0 1-49-1-98-14-128-33 13-3 27-12 45-23 50-32 75-60 73-83-1-11-10-20-23-24-32-8-92 12-135 60-12 15-16 32-10 48-6-1-13-4-21-6l-7-3c-64-19-109-70-104-116 1-21 10-40 24-55 3-5 3-11-2-16-5-4-11-4-16 1-17 19-27 42-30 69-7 57 44 117 119 140l7 2c20 6 34 10 47 11 33 32 102 53 170 52 6 7 16 15 27 20 51 26 123 35 151 38 19 3 39 2 58-2 11 6 25 12 41 15 35 7 103 16 161-6 80-30 120-78 120-142 0-10-2-45-26-63-110-77-520-180-650-184-15-1-27-1-39-1z m-6 247c0 0-1-1-1-1-10-13-10-24 0-36 37-45 89-60 111-53 3 1 6 3 8 5 1 8-12 29-62 60-28 18-41 25-56 25z m173 51c0-1 0-2 0-2-2-10 7-21 25-35 62-49 110-56 125-49 3 1 3 4 3 4 0 9-15 31-70 60-26 14-55 20-83 22z m228 55c-5-5-8-10-10-13-1-8 3-14 12-22 51-41 88-45 101-38 4 1 4 3 4 7-2 13-24 41-98 64-1 1-5 1-9 2z" horiz-adv-x="1000" />

<glyph glyph-name="soups" unicode="&#xe817;" d="M500-8c-135 0-247 46-324 129-83 92-122 224-108 374 6 71 62 129 163 168 87 32 202 48 317 45 286-12 388-123 390-214 0-34-17-66-49-95-88-78-284-120-458-99-6 1-10 6-10 13 2 6 7 10 13 10 167-22 356 20 439 93 27 25 41 52 41 79-1 119-186 181-369 189-212 9-444-55-456-191-13-143 24-269 104-357 72-80 178-121 307-121 353 0 404 283 411 369 0 6 7 11 13 10 6 0 11-6 10-13-8-90-63-389-434-389z m-165 324c-9 0-19 2-29 3-20 5-37 10-55 19-6 2-8 8-6 15 3 6 9 8 15 6 16-8 33-13 50-16 41-7 60 2 61 10 2 6-7 17-22 22-66 19-94 56-98 83-2 17 5 32 19 41 30 17 80 2 140-41 41-30 51-30 53-29 1 2 1 17 1 27 0 4 0 9 0 13 0 59 35 87 67 95 32 7 62-4 72-25 6-14 10-45-43-85-12-10-17-23-12-34 7-17 50-39 153-12 47 11 123 30 143 66 5 10 6 21 2 34-32 102-261 137-453 112-145-24-240-74-243-132-1-39 18-73 56-102 5-3 7-11 3-16-4-5-11-6-16-2-45 32-68 73-65 120 3 72 101 127 261 148 206 28 441-12 477-127 7-19 5-36-3-51-23-42-90-62-157-78-138-35-172 10-180 25-10 20-2 44 19 61 29 23 43 44 36 58-5 11-25 17-45 12-11-2-50-16-50-72 0-4 0-9 0-13 0-21 2-40-13-47-14-8-35 1-77 31-60 44-100 49-115 40-7-5-8-12-7-19 2-21 29-50 81-63 26-8 43-29 39-49-3-8-13-28-59-28z" horiz-adv-x="1000" />

<glyph glyph-name="you-pick-2" unicode="&#xe818;" d="M500 70c-37 0-75 4-112 13l-115 28c-7 2-10 8-8 14 1 6 8 10 14 9l115-29c71-15 144-15 215 0l294 75c42 11 71 49 71 93v155c0 43-30 81-71 92-7 1-10 8-8 14 1 6 8 10 14 7 52-13 89-60 89-113v-157c0-53-37-100-89-113l-294-75c-40-9-77-13-115-13z m-325 66c-1 0-1 0-2 0l-79 20c-53 14-89 60-89 114v158c0 53 36 100 89 113l294 75c73 19 151 19 225 0 16-5 68-17 120-30 75-18 122-31 130-33 6-3 8-9 6-15-3-7-9-9-15-7-8 3-71 19-128 33-52 14-102 26-120 30-68 19-143 19-213 0l-294-75c-43-11-71-49-71-93v-156c0-44 30-81 71-92l79-20c6-2 10-8 7-14 0-4-5-8-10-8z m430 50c-37 0-112 2-180 2-12 0-20 0-21 0-24 0-34 8-39 16-6 9-10 21-2 42 13 34 38 64 80 95 30 23 62 44 95 63 16 10 16 19 15 27-4 15-18 27-34 28-9 1-18 0-26-1-4-2-9-4-13-5-2-3-5-7-5-9 0-9-2-16-6-25-9-19-28-33-48-35l-1 0c-9 0-17 2-25 7-19 13-29 34-25 55 3 14 8 25 16 37 19 22 44 38 73 46 29 7 60 9 90 2 15-2 29-7 42-15 8-3 14-8 20-13 9-8 17-17 23-28 7-14 12-30 12-46 0-10-1-19-3-29l0-1c-9-19-23-36-39-50-14-10-29-19-48-29-10-6-21-11-32-19-28-13-50-35-64-62-2-5-10-8-15-5-5 2-7 10-5 15 16 31 41 56 73 71 11 6 22 13 32 19 18 10 33 19 45 27 14 12 25 25 33 42 2 6 2 13 2 21 0 12-4 25-10 35-5 7-10 15-17 21-5 4-10 8-17 11-11 7-23 10-36 13-26 5-55 4-80-3-24-6-45-18-60-37-5-8-10-16-11-25-1-13 4-26 15-33 4-2 7-3 12-3 13 1 24 10 30 22 3 5 4 11 4 18 1 11 8 21 16 26 7 2 12 5 18 7 11 3 22 4 34 3 26-1 48-20 55-45 2-14 1-34-25-51-33-18-64-39-93-60-49-38-64-67-72-87-4-8-4-16-2-20 3-3 10-6 22-6 1 0 8 0 22 0 51 0 185-2 200-1 4 0 14 1 14 9l0 8c0 19 0 58 0 68 0 1 0 1 0 2 0 0-1 0-1 0-3 0-9 2-34 2 0 0-1 0-1 0 0-2 0-4 0-7 0-5-2-11-2-16 0-1 0-1 0-2 0-7-2-14-6-19s-11-8-17-9l-63 0c-6 0-11 5-11 11s5 12 11 12h63c0 0 1 0 1 1 0 0 1 1 1 2l0 3c0 6 0 14 1 19 0 2 0 5 0 6 0 10 7 21 24 21 21 0 33 0 38-1 18-3 21-18 20-26 0-9 0-49 0-65l0-9c0-15-12-30-37-31-8-7-16-7-26-7z" horiz-adv-x="1000" />

<glyph glyph-name="vegetarian" unicode="&#xe819;" d="M174-20c-18 0-33 7-45 23-23 26 2 76 16 102 21 41 183 278 269 374-54 15-119 24-191 17-7-1-12 4-13 10 0 7 4 12 10 13 81 7 153-4 210-21 5 5 10 10 15 13 33 27 100 29 141 4 5-4 8-10 4-15-4-5-10-7-15-4-34 20-91 19-116-1-1-1-3-2-5-4 32-11 61-22 82-31 10-4 18-7 24-10 18-6 44 14 51 21l3 4c14 15 29 31 11 68-12 27-29 46-42 61-9 10-17 17-20 26-7 14-12 38-4 58 5 13 14 23 26 30 19 8 39 8 55 0 18-10 29-29 30-54 4-46 4-70 3-101 0-5 0-12 5-14 5-3 12-1 18 4 10 6 12 11 14 20 1 2 1 5 3 7 1 5-3 31-15 65-5 14-7 36 5 53 6 8 17 20 40 22 18 1 35-7 45-22 11-18 13-43 5-59-4-9-10-18-15-28-8-13-17-27-19-36-3-6-3-17-1-29 16 12 35 22 60 20 25-1 48-16 56-37 6-18 2-36-13-51-26-28-62-19-107 25-20 20-24 60-16 78 3 10 12 24 21 40 5 9 11 19 15 27 4 7 4 23-4 36-6 9-14 14-25 12-11-1-19-5-22-11-7-10-7-24-3-32 3-7 23-60 16-80-1-3-1-5-2-7-3-10-6-21-23-32-13-10-30-11-42-5-6 4-18 12-16 35 1 31 0 54-3 99 0 12-6 25-17 31-10 6-23 5-35 0-7-4-12-9-14-16-5-14-3-32 2-40 3-5 9-13 17-22 13-15 32-36 46-66 22-50-1-76-15-91l-4-4c-5-5-42-39-76-26-6 2-15 6-25 10-24 10-54 22-91 34-82-88-250-335-273-378-7-15-32-62-20-77 13-15 28-26 79 2 7 5 20 11 35 20 5 3 12 1 15-4 2-5 1-12-4-15-15-8-27-16-36-20-23-15-43-21-60-21z m595 539c1-3 2-4 4-5 35-34 58-43 75-26 8 8 11 17 7 27-5 13-20 23-36 24-20 0-34-9-50-20z m-448-468c-3 0-7 3-10 5-3 5-1 13 4 15 144 84 310 189 348 227 32 33 16 68 5 95-2 3-4 7-5 10-9 22-5 45 12 60 8 6 13 11 24 21l5 4c5 3 11 3 16-2 4-5 4-11-1-16l-5-4c-13-10-16-15-24-21-14-12-10-27-6-35 1-2 2-6 4-9 12-26 33-75-9-120-49-50-283-188-353-230-1 0-2 0-5 0z" horiz-adv-x="1000" />

<glyph glyph-name="plant-forward" unicode="&#xe81a;" d="M499-19c-64 0-128 16-185 50l10 18c92-54 201-63 301-24 179 70 268 271 199 450-69 180-271 269-450 200-179-70-265-267-199-451 23-60 69-98 129-103 60-5 120 24 149 74 16 29 22 79 15 130-57-6-110-1-145 19-90 54-70 147-70 147l1 5 5 3c4 1 82 32 154-20 37-28 62-79 73-131 3 0 5 1 9 1-12 70 0 141 30 176 59 69 148 73 151 73l8 0 2-8c2-4 33-91-17-171-25-40-85-71-151-88 12-53 36-93 68-110 54-27 94-22 110-18-5 26-30 105-130 105v21c137 0 153-130 153-131l1-8-7-1c-3-1-58-24-137 16-37 19-66 64-78 124-3 0-5-1-9-1 7-54 2-109-19-144-32-56-100-90-169-84-67 6-121 49-146 116-71 194 21 404 210 477 190 73 404-22 478-210 73-190-22-404-210-478-43-15-89-24-134-24z m-228 500c-2-18-5-81 62-120 32-20 81-23 131-17-10 47-31 94-65 119-51 37-110 23-128 18z m397 95c-22-2-85-13-128-63-26-32-36-95-26-159 61 16 116 45 137 77 35 58 23 123 17 145z" horiz-adv-x="1000" />
</font>
</defs>
</svg>
