<svg id="Layer_1" data-name="Layer 1" xmlns="http://www.w3.org/2000/svg" xmlns:xlink="http://www.w3.org/1999/xlink" viewBox="0 0 53.08 43.65"><defs><style>.cls-1,.cls-3{fill:none;}.cls-2{clip-path:url(#clip-path);}.cls-3{stroke:#6b9f62;stroke-linecap:round;stroke-linejoin:round;stroke-width:1.44px;}</style><clipPath id="clip-path" transform="translate(-0.36 -7.39)"><rect class="cls-1" y="1.12" width="56" height="53.76"/></clipPath></defs><title>cat-panera-kids</title><g class="cls-2"><path class="cls-3" d="M10.3,36.08c2-2.28-.42-5.49-2.56-8.11-2.29-2.8-5.5-5.5-6.39-7.43-1-2.22,1.12-3.46,2.44-2.18A27.53,27.53,0,0,0,7,21.27c.75.5,1.7-.53,1.12-1.19a26,26,0,0,1-3.72-5.8,1.71,1.71,0,1,1,3.05-1.54,34.31,34.31,0,0,0,3.19,5.55A.79.79,0,0,0,12,17.73c-.28-1.9-1.37-5.23-1.65-7.09a2,2,0,1,1,3.88-.94c.19,1,.27,4.84,1,7.16.42,1.28,1.48.84,1.64.06a51.67,51.67,0,0,0,.74-6.28c.19-2.45,3.83-2.05,3.75.36a90.32,90.32,0,0,1-2.28,14.25c-1.1,4.24-3.72,2.71-3.11.8,1-3.27,4.74-1.63,7.72-8.46,1.14-2.62,4.5-1.51,3.41,1.94a26.44,26.44,0,0,1-6,10.89c-3.68,4.37-.7,9.79,2.82,13.24,3.16,3.1,7.39,2.08,6.11.34-2.94-4-3.87-9.32-4.4-13.43-.46-3.59,3.76-4.14,4.43-1.26,1.68,7.26,5.18,6.25,5.61,9.65.25,2-2.59,2-2.91-2.35S34.52,25.76,35,23.4s3.77-2.13,3.5.31c-.18,1.58-.83,5-1,6.77-.08.78.92,1.1,1.58-.15,1.17-2.21,2.88-6.21,3.23-7.12.91-2.31,4.36-1.33,3.39,1.53-.67,2-3,5.56-3.7,7.26-.22.52.5.91.88.62a35.57,35.57,0,0,0,4.91-5.37c1.24-1.76,3.77-.11,2.42,2a31.36,31.36,0,0,1-5,5.57c-1.09.88,0,1.94,1.17,1.58s2.64-1.73,3.79-2.76c1.62-1.46,3.42,0,2,2.11C51,37.5,47.72,40.3,45,42.73a10.47,10.47,0,0,1-5,2.89c-2.2.59-2.62,3.9,1,4.7" transform="translate(-0.36 -7.39)"/></g></svg>