<svg id="Layer_1" data-name="Layer 1" xmlns="http://www.w3.org/2000/svg" xmlns:xlink="http://www.w3.org/1999/xlink" viewBox="0 0 43.62 44.08"><defs><style>.cls-1,.cls-3{fill:none;}.cls-2{clip-path:url(#clip-path);}.cls-3{stroke:#6b9f62;stroke-linecap:round;stroke-linejoin:round;stroke-width:1.44px;}</style><clipPath id="clip-path" transform="translate(-7.13 -6.57)"><rect class="cls-1" width="56" height="56"/></clipPath></defs><title>cat-salads</title><g class="cls-2"><path class="cls-3" d="M7.85,43.6c4.78-2.21,3.95-5.13,1.29-12.32C4.24,18,18.67,11.95,18.88,22.69c.09,4.55-6.19,3.64-3-6C20.55,2.22,37.52,6.84,33,14.74c-2.9,5.08-5.93,1.87-3.34-1.51,12.37-16.14,28.13,6,12.42,13-5.46,2.42-9-1-3.81-3.63,12.59-6.34,17.46,11.26,2.44,15.21-7.17,1.88-8-1.88-1.81-3.06,10.72-2,7.75,12.37-9.49,10.8-3.64-.33-9.06-4-12.09,2.6-1.84,4-3.31.74-.78-4.83s7-10.81,13.57-12.15,2.31,2.35-4.22,4.53c-4.15,1.38-7.27-3.75-.24-12.19,2.55-3.06,6.15-3.41,2.61,1-4,4.94-10.83,13.38-11.13,8.34-.52-9-4.88-5.75-1.92,1.92a6.93,6.93,0,0,1-1,6.53" transform="translate(-7.13 -6.57)"/></g></svg>