<svg id="Layer_1" data-name="Layer 1" xmlns="http://www.w3.org/2000/svg" xmlns:xlink="http://www.w3.org/1999/xlink" viewBox="0 0 52.89 50.3"><defs><style>.cls-1,.cls-3{fill:none;}.cls-2{clip-path:url(#clip-path);}.cls-3{stroke:#6b9f62;stroke-linecap:round;stroke-linejoin:round;stroke-width:1.44px;}</style><clipPath id="clip-path" transform="translate(-0.93 -3.14)"><rect class="cls-1" y="0.57" width="56" height="54.86"/></clipPath></defs><title>cat-pastas</title><g class="cls-2"><path class="cls-3" d="M28.24,26.59c1.23,2-2,4.1.69,4.89a3.09,3.09,0,0,1,1.58,4.36c-.93,1.39.43,2.38,2.54,4.37,2.51,2.38.22,4.84-5.32,4.66-3.9-.13-5.8-.7-7.11-2.12-1.54-1.66,1.19-4.83,3.17-6.4,2.52-2,3.5.74,1.09,2.94a21.63,21.63,0,0,1-5.28,3.15c-1.28.63-6.38.87-8.44-.14-1.75-.86-1.34-2.5.41-2.9s6.83,1.74,6.5,3.77c-.65,4-4.68,7.74-7,9C7.74,54,7.38,50.63,8.42,48.79,9.65,46.61,9.34,45.08,7,45c-1.49,0-2.32-2.07-.21-3.77,1.32-1.06-1.63-2.84-3.42-3.52S.83,35.4,2.84,34.14s11.34.7,13.81,2.61c1.09.84,2.5.58,2.75-1,.49-3.07,1.16-6.83,2.8-9.59a9,9,0,0,1,6.58-4.63c3.43-.31,5.24-3.57,1.1-8.53-2.33-2.79-4.35.09-2.84,2.33,1.69,2.5,5.5,4.35,7.52,4.22a52.76,52.76,0,0,1,6.23.1c5.59.69,3.69-3.71-.3-3a11.33,11.33,0,0,0-5.29,3C44.06,22.5,41,29.58,36,22.8c-2-2.72-3.16-.27-1.94,1.77s3.85,8.93,6.29,10.84c4,3.14,3.7-.72,3.24-1.86s-1-3.15,1.4-2.11,3-1,1.75-2.83-1.14-5.5.92-5.21,2.41-1.32,1.23-3a2.34,2.34,0,0,1,1.41-3.64c1.32-.38,4.82-2.59,1.28-5s-12.81.5-14.53,2.74-1.61,1.64-2.14-.18S30.83,6,28,4.4,24.81,5,25,7.56s0,2.85-1.09,3.45-2,.49-1.39,3.88c.35,1.36-1.71,3.83-3.45,4.1s-4.11,3.43,1.65,3.7" transform="translate(-0.93 -3.14)"/></g></svg>