<svg id="Layer_1" data-name="Layer 1" xmlns="http://www.w3.org/2000/svg" xmlns:xlink="http://www.w3.org/1999/xlink" viewBox="0 0 40.2 43.6"><defs><style>.cls-1,.cls-3{fill:none;}.cls-2{clip-path:url(#clip-path);}.cls-3{stroke:#6b9f62;stroke-linecap:round;stroke-linejoin:round;stroke-width:1.44px;}</style><clipPath id="clip-path" transform="translate(-6 -6.56)"><rect class="cls-1" width="56" height="56"/></clipPath></defs><title>cat-beverages</title><g class="cls-2"><path class="cls-3" d="M45.48,28.72c-.71,4,2.47,20.72-15.58,20.72S15.76,26,9,28.37c-5.35,1.87-.13,14.72,5,12.92,2-.71,2-3.59,1.67-5.65C15.3,33.22,14.43,28,14.09,24.8c-1-9.27,32.37-9.64,31.25-1C45,26.69,37.45,28.9,30.23,29c-6.52.12-12.86-1.57-12.86-3.83,0-3.64,12.57-4.31,17.57-3.9,7.27.61,6.09,4.38-5.11,4.33-14.37-.06-14.84-12.77.75-12.05,10.72.49,9.3-6.3.9-6.3" transform="translate(-6 -6.56)"/></g></svg>