<svg id="Layer_1" data-name="Layer 1" xmlns="http://www.w3.org/2000/svg" xmlns:xlink="http://www.w3.org/1999/xlink" viewBox="0 0 45.91 37.21"><defs><style>.cls-1,.cls-3{fill:none;}.cls-2{clip-path:url(#clip-path);}.cls-3{stroke:#6b9f62;stroke-linecap:round;stroke-linejoin:round;stroke-width:1.44px;}</style><clipPath id="clip-path" transform="translate(-4.88 -9.92)"><rect class="cls-1" width="56" height="56"/></clipPath></defs><title>cat-soups</title><g class="cls-2"><path class="cls-3" d="M19.79,27.06c-7.44-1.15-5.59-9.25,2.65-3.2,4.12,3,3.67,1.29,3.66-1,0-6.93,10.6-4.69,4,.35-2.34,1.78-.76,5.46,7.75,3.36,3.83-.95,8.39-2.14,7.16-5.59-3-8.51-34.71-8.23-35.12.69C9.24,35.13,49,33,49.05,21.48,49.17,6.73,7.12,7.36,5.75,21.38c-1.26,12.85,5.63,25,21.57,25,17.25,0,22.92-11.67,22.74-20" transform="translate(-4.88 -9.92)"/></g></svg>