<svg id="Layer_1" data-name="Layer 1" xmlns="http://www.w3.org/2000/svg" xmlns:xlink="http://www.w3.org/1999/xlink" viewBox="0 0 45.97 31.15"><defs><style>.cls-1,.cls-3{fill:none;}.cls-2{clip-path:url(#clip-path);}.cls-3{stroke:#6b9f62;stroke-linecap:round;stroke-linejoin:round;stroke-width:1.44px;}</style><clipPath id="clip-path" transform="translate(-6 -12.16)"><rect class="cls-1" width="56" height="56"/></clipPath></defs><title>cat-bakery</title><g class="cls-2"><path class="cls-3" d="M42,19.22a6.5,6.5,0,0,1,4.53,5.73c.13,1.82-6.25,7.14-9.57,8.63-2.76,1.24.71,3,2.32,3.21,1.43.18,2.79,1.72,3.81,3.27s1.92,2.61,4,2.53c3.28-.13,5.61-5.86,2.93-12.61-.74-1.86-2.09-.91-2.52-.28-3.18,4.68-12.42,9.19-15.42,8.56-1.52-.32-1.95-1.83-1.12-2.55,3.24-2.84,6.9-11.53,7.35-15.81.42-4.05-1.67-5.68-4.4-6.43a21.27,21.27,0,0,0-9.93,0c-3,.86-4.85,2.39-4.42,6.45.45,4.28,4.11,13,7.35,15.81.82.72.4,2.23-1.12,2.55-3,.64-12.23-3.88-15.42-8.56-.43-.63-1.79-1.58-2.52.28-2.68,6.74-.34,12.47,2.93,12.61,2.09.08,2.94-.93,4-2.53S17.2,37,18.64,36.79c1.62-.2,5.08-2,2.32-3.21-3.31-1.49-9.69-6.81-9.57-8.63a6.5,6.5,0,0,1,4.53-5.73" transform="translate(-6 -12.16)"/></g></svg>