<svg id="Layer_1" data-name="Layer 1" xmlns="http://www.w3.org/2000/svg" xmlns:xlink="http://www.w3.org/1999/xlink" viewBox="0 0 51.52 36.03"><defs><style>.cls-1,.cls-3{fill:none;}.cls-2{clip-path:url(#clip-path);}.cls-3{stroke:#6b9f62;stroke-linecap:round;stroke-linejoin:round;stroke-width:1.5px;}</style><clipPath id="clip-path" transform="translate(-1.59 -10.35)"><rect class="cls-1" width="56" height="56"/></clipPath></defs><title>cat-sandwiches</title><g class="cls-2"><path class="cls-3" d="M48.36,17.93c-.77-4-2.54-5.39-5.13-6.23-5.73-1.87-14.3,1.05-11,3.68,6.74,5.35,10,0,1-2.73-5.06-1.55-17.32,1.6-11.83,5.77,7,5.33,11.3,2.09,3.73-1.83C18.8,13.33,7.78,17.31,10.86,21c4.24,5,11.83,3.21,3.73-1.53-5.47-3.21-12.77,1.5-12.22,6a4.92,4.92,0,0,0,3,4c1.95,1.1,3.95,1.46,8.47,1.31,6.67-.22,27.37-5.32,33.1-8.55A11.15,11.15,0,0,1,49.83,21c1.33-.31,2.69-.33,2.21,1.12-.88,2.63-2.48,2.63-5.26,4.09s-2,4.38-4.38,5.7-4.31-1.31-8-1.31-2,3.07-5.62,4.82-4.46-2.26-7.67-1.68S18,36.17,14.49,37.33s-4.24-1.75-6.43-3.21-2.34-1-4.38.44-1.22,3.06,3.07,4.38c1.92.59,4.34,1.7,7.78,1.63,11.47-.24,26.28-4.09,33.16-8.77a9.53,9.53,0,0,0,3.14-4.33c.19-.39,1.2,1.44,1.31,1.86.44,1.78.54,4.42-2.69,6.9C42.33,41.69,22,46.75,12.09,45.42c-3-.4-6.86-2-7.68-4.14" transform="translate(-1.59 -10.35)"/></g></svg>