<svg id="Layer_1" data-name="Layer 1" xmlns="http://www.w3.org/2000/svg" xmlns:xlink="http://www.w3.org/1999/xlink" viewBox="0 0 54.63 30.8"><defs><style>.cls-1,.cls-3{fill:none;}.cls-2{clip-path:url(#clip-path);}.cls-3{stroke:#6b9f62;stroke-linecap:round;stroke-miterlimit:10;stroke-width:1.5px;}</style><clipPath id="clip-path" transform="translate(-0.77 -12.67)"><rect class="cls-1" width="56" height="56"/></clipPath></defs><title>cat-you-pick-2</title><g class="cls-2"><path class="cls-3" d="M22,42.27,5.91,38.17a5.83,5.83,0,0,1-4.4-5.65V23.93a5.83,5.83,0,0,1,4.4-5.65L22,14.17a24.5,24.5,0,0,1,12.08,0l16.13,4.1a5.83,5.83,0,0,1,4.4,5.65v8.59a5.83,5.83,0,0,1-4.4,5.65l-16.13,4.1C27.8,43.59,23.6,42,23.6,37.33" transform="translate(-0.77 -12.67)"/><path class="cls-3" d="M23.76,36.86a6.71,6.71,0,0,1,.45-2,5.41,5.41,0,0,1,1-1.49,7.89,7.89,0,0,1,.87-.87,20.26,20.26,0,0,1,3-2.17c1.76-1.06,3.24-1.75,4.32-2.59a6.92,6.92,0,0,0,2-2.51,4.78,4.78,0,0,0,.19-1.35,4.7,4.7,0,0,0-.6-2.25,4.76,4.76,0,0,0-1.09-1.33,6,6,0,0,0-1-.72,8.82,8.82,0,0,0-2.19-.76,10.35,10.35,0,0,0-4.71.17,6.64,6.64,0,0,0-3.63,2.28,4,4,0,0,0-.74,1.7,2.54,2.54,0,0,0,1.11,2.45,2,2,0,0,0,1.15.33,2.72,2.72,0,0,0,2.14-1.56A3.07,3.07,0,0,0,26.19,23a1.2,1.2,0,0,1,.59-.91,6.3,6.3,0,0,1,.83-.34,4.91,4.91,0,0,1,1.6-.11,2.65,2.65,0,0,1,2.46,2,2,2,0,0,1-1.13,2.13,42.9,42.9,0,0,0-5.13,3.36,11.85,11.85,0,0,0-4.18,5c-.6,1.45,0,2.33,1.63,2.33.31,0,11.22.13,12.2.08S36.4,36,36.4,35.51c0-.32-.06-3.54,0-4.14s-.26-.72-.59-.76-1.58,0-2,0c-.66,0-.72.37-.72.54s-.07.83-.06,1.35a.78.78,0,0,1-.74.91H31.25" transform="translate(-0.77 -12.67)"/></g></svg>