<svg id="Layer_0" data-name="Layer 0" xmlns="http://www.w3.org/2000/svg" viewBox="0 0 306 306"><defs><style>.cls-1{fill:#4c753f;}.cls-2{fill:#ffdb96;}.cls-3{fill:#54301a;}.cls-4{fill:#fff;}</style></defs><title>logo</title><rect class="cls-1" width="306" height="306"/><path class="cls-2" d="M161.1,77.1C149,78,140.4,82,135.7,88.9c-2.9,4.2.9,11.4,1.4,12.2l.1.1.2.4a15.76,15.76,0,0,1-3.5,1.6c-4.1,1.5-10.4,3.9-13.8,10.3-4.6,8.6-3.2,16.9,3.8,23.2,8.2,7.4,21.4,8.7,28.5,8.8,6.3.1,14.1.2,24.7-6.9,8.6-5.8,12.9-14.2,12.9-20.4a12.7,12.7,0,0,0-.5-3.4,1,1,0,0,1-.1-.3l.9-1.3.4-.8.2-1.5-.8-2.4-.2-.3a6.61,6.61,0,0,0-3.2-2.2l.2-.1,1.1-.5,1.4-.9,3.5-2.7,1.3-1.7.4-.6.7-.6,1.9-1.9,1-1.4a13.49,13.49,0,0,0,.3-1.8l-.3-.9-.1-.3-.1-.1-.4-.4-.6-.2a3.36,3.36,0,0,0,.5-1.4,2.2,2.2,0,0,0-.6-1.5l-.6-.3.4-.2c.2-.1.3-.2.5-.3l.1-.1.4-.5.3-.8-.1-.7-.1-.6-.2-.3-.6-.7a1.55,1.55,0,0,0-.6-.3l-.2-.1-.5-.1h-.8l-.8.2-.5.4h-.4l-1,.1-1.5.5-.3.1-1.1.3h-1.4c-.2-.8-.5-1.7-.5-1.7-2.6-6.1-9.8-8-26.3-6.8m34.6,17Z"/><path class="cls-3" d="M181.3,121.8a1.93,1.93,0,0,1,.3-1c0-.1-.1-.4-.1-.5.4-.2.5-.1.7.3a5.68,5.68,0,0,1-.7,3.8v.3c-.8,1.2-2.7,2.4-3.9,1.3a.76.76,0,0,0-.2-.5,10.09,10.09,0,0,1,1.5-.7,8.86,8.86,0,0,0,2.4-3m-2.8-9.1c1.1-.1,1.9-.8,3-.9,0,.2.4,0,.4.2v.2h-.3a3.07,3.07,0,0,1-1.5,1,.22.22,0,0,0-.2.2c-3,1-5.1,3.6-6.5,6.1,0,.1,0,.2.2.2a27,27,0,0,1,6.3-4.3v.2c-1.9,2-4.4,3.5-6.3,5.5-.7.1-1.6.6-1.9-.1a4.78,4.78,0,0,1,1.6-4.1,17.81,17.81,0,0,1,5.2-4.2m-11.1,3.7a4.17,4.17,0,0,0,.6-.2c.6-.3,1-.7,1.6-1a17.1,17.1,0,0,1,3-.9.6.6,0,0,1,.8,0,.3.3,0,0,1,0,.4.75.75,0,0,0-.5.1c-.1.1-.2.3-.4.3a6.47,6.47,0,0,1-1.3.4,42.7,42.7,0,0,0-4.4,3,1.76,1.76,0,0,0-.9,1,.6.6,0,0,1-.1.4,41.17,41.17,0,0,0-3.3,6.2c-.1.1.1.3.2.2,1-1,1.4-2.4,2.7-3.1.3-.2.3.4.2.6-.4,1.2-1.6,2.1-2.5,3.1-.3.3-1.6,1.2-1.8.6-1-2.8.6-5.7,2.1-8a11.08,11.08,0,0,1,4-3.1m-5.9,3.1c.1,0,.3.2.2.2a3.36,3.36,0,0,0-1.6,1c-.1.1-.3.1-.4.2-.5.3-.6.8-1,1.2a.76.76,0,0,0-.4.2,12,12,0,0,0-2.6,2.9c-.4.7-.6,1.6-1,2.3-.1.1,0,.5.2.4.7-.7,1.2-1.5,2-2.2.1-.1.2.1.2.2-.2,1-1.1,1.9-1.5,2.8a.6.6,0,0,0-.1.4c0,.3-.6.3-.6.6a.6.6,0,0,1-.1.4,2.28,2.28,0,0,1-1.9,1,.85.85,0,0,1-.7-.8,7.17,7.17,0,0,1,.4-4.1,6.54,6.54,0,0,1,1.7-2.6c2-1.9,4.3-3.7,7.2-4.1M147.2,123c.1-.1.2.1.3,0a4.83,4.83,0,0,0,1.7-3.1,4,4,0,0,0-.7-1.9,1.76,1.76,0,0,0-1.5-.8,2,2,0,0,0-1.5.2l-.6.6a4.26,4.26,0,0,0-2,1.5c-.1.1-.3,0-.4.2a5.58,5.58,0,0,0-1,2.8c-.1.6-.2,1-.3,1.6a2.57,2.57,0,0,0,.3,2.4c.3.4.3.9.6,1.3a16.8,16.8,0,0,0,4.8,3.6c2.1,1.3,6.7,1.3,8.9,1.3a14.26,14.26,0,0,0,7.5-2.2c1.2-.8,3.1-1,4.5-1.8,5.8-3.4,9.3-6.8,13.9-11.3,1.6-1.5,4.8-3,4.1-5.7-.5-1.9-6.8-.5-7.8-.2-5.1,1.6-10.5,2.7-15.2,5.1a29.43,29.43,0,0,0-5.5,3.7c-.4.3-.8.5-1.2.8s-.7.8-1.2,1.2a51.71,51.71,0,0,0-6.4,6l-1.2,1.2c-.3.3-.8-.1-.6-.4a13.09,13.09,0,0,1,1.9-2.7c.1-.1.3-.1.4-.2a50.38,50.38,0,0,1,13.9-11.7,20.88,20.88,0,0,1,4-1.9c2.9-1,5.7-2.2,8.5-3.2,1.2-.5,5-1.7,6.2-1.5.9.1,1.8-.2,2.6-.1a5.37,5.37,0,0,1,2.1.5,3.45,3.45,0,0,1,2.3,3.5l-.5,1.1c-1.7,2.9-3.6,4.1-6.1,6.1-2.8,2.2-5.2,4.9-8.1,7.1-1.3,1-2.6,1.8-4,2.7a34.38,34.38,0,0,1-11.1,4.4,28.56,28.56,0,0,1-10.9.2,27.58,27.58,0,0,1-2.7-.8,13.31,13.31,0,0,1-4.6-2.7c-2.2-1.9-3.7-5.1-2.7-7.9a.6.6,0,0,0-.1-.4,7.2,7.2,0,0,1,1.5-2.7,19.83,19.83,0,0,1,2-1.1c.4-.3,1-.1,1.4-.4.3.2,1.2-.4,1.9-.4,1,.1,1.9-.4,2.8-.2a3.18,3.18,0,0,1,2,.8,3.28,3.28,0,0,1,1,2.8,5.35,5.35,0,0,1-2.1,3.2,2.19,2.19,0,0,1-.5.3c-.8.2-1.7.8-2.5.4a1.14,1.14,0,0,1,.8-.3,4.13,4.13,0,0,0,1.1-.7m-2.7-17.7c.6-.4,1.1.5,1.6.7.8.3,1.7,0,2.1.6v.2c.3.1.6.3.9.4.1.1.1.1,0,.2a1.27,1.27,0,0,1-1.3.7,2.62,2.62,0,0,1-.9-.5c-.1-.1-.2.2-.1.3a.49.49,0,0,1,.1.7.52.52,0,0,1-.4.2,2.23,2.23,0,0,1-1.8-1c-.2-.5.6-.2.6-.6a3,3,0,0,0-.8-.8c0-.3-.5-.7,0-1.1m13.4-2.4c.6-1,1.1-1.9,1.8-2.9h.3c.5.8-.2,2.2-.8,2.9a6.6,6.6,0,0,1-1.2,2.7,43.46,43.46,0,0,1-4.1,4.4c-.9.7-2.5,1.4-2.6,1.6-1.5.7-3.2.8-4.7,1.4a3,3,0,0,1-1.3.2,16.55,16.55,0,0,1-2.1-.6,20,20,0,0,1-2.4-1.6,3.11,3.11,0,0,0-2.5-.1,22.5,22.5,0,0,0-2.4.8c-.3.1-.5.1-.8.2a11.26,11.26,0,0,0-2.7,1.3c-1.4,1.4-2.9,3.1-3.3,5.1a13.94,13.94,0,0,0-.4,4.1,11.56,11.56,0,0,0,1.2,5.1c1.6,3.1,3.3,4.6,6.5,6.5.4.2.8.3,1.2.5a23.92,23.92,0,0,0,2.1,1.3,48.39,48.39,0,0,0,10.5,3,29.72,29.72,0,0,0,11.1-.9,33.14,33.14,0,0,0,7.4-2.8,53.93,53.93,0,0,0,5-3.3,21.26,21.26,0,0,0,3-3,6.08,6.08,0,0,1,.1-1.9c.3-.6,1.5-.8,1.8-.2.4.9-1.3,2.8-2,3.4a22.63,22.63,0,0,1-2.8,2.5c-.4.3-.8.9-1.2,1.2-.2.1-.4.3-.6.4a20.21,20.21,0,0,1-4,2.4,49.58,49.58,0,0,1-9.3,2.7c-1.7.2-3.3.9-5,1a26.75,26.75,0,0,1-4.9.1c-1.3-.1-2.6-.2-4-.4-.6-.1-1.2-.3-1.8-.4a41.27,41.27,0,0,1-5-1.5,19.66,19.66,0,0,1-7.6-4.6,17.89,17.89,0,0,1-2.7-2.8,29,29,0,0,1-1.9-2.9.6.6,0,0,1,.1-.4,11.18,11.18,0,0,1-1.2-3.5,2.85,2.85,0,0,1,0-1.3c.2-.5,0-1.2.2-1.7s.2-1,.3-1.4a16.86,16.86,0,0,0,1.2-2.8,12.15,12.15,0,0,1,3.5-5.7c.6-.5,1.4-.8,2-1.3.8-.1,1.6-.6,2.5-.7a14.82,14.82,0,0,1,4.2-.2c.9.5,1.9.5,2.9,1s1.8,1.1,2.7,1.6c2.6.7,5.1-.4,7.1-1.8a26.31,26.31,0,0,0,6.6-6.7m-1.9-2.6c-.6-.4-1.4-.2-2-.6a1.1,1.1,0,0,1,0-.8,12.72,12.72,0,0,1,3.4.2,1.52,1.52,0,0,1,.8,1.9,2.44,2.44,0,0,1-2.2-.2c.1-.1,0-.3,0-.5m4.4-3.2c.2-.2,0-.5.5-.3,1,.4,1.6,1.4,2.6,1.7a43,43,0,0,0,9.5,2.6,27.9,27.9,0,0,0,5,.2,48.6,48.6,0,0,0,9.4-1.6,10.84,10.84,0,0,0,3.8-1.7c1.4-1.1,2.9-2.3,4.4-3.4.2-.2.2-.6.5-.9s.2.6.1.8a17.21,17.21,0,0,1-3.2,3.4c-.7.6-.9,1.6-1.6,2.2-1.1.9-2.3,1.7-3.3,2.6-1.6,1.3-3.7,1.5-5.6,2.2a4.42,4.42,0,0,1-2,.2c-2.8-.5-5.8.3-9-.5a21.17,21.17,0,0,1-9.2-5.2c-.7-.8-1.8-1.3-1.9-2.3m-8.9-3a4.42,4.42,0,0,1,1.5-2.3c1.5-1.3,5.6-2.8,7.9-2.4a11.53,11.53,0,0,0,2.6.3,24.69,24.69,0,0,1,2.9,1,26.94,26.94,0,0,1,2.9,1.6,19,19,0,0,0,3.6,1.2,24.84,24.84,0,0,0,7.7.6,17.42,17.42,0,0,1,2.2-.5,10.87,10.87,0,0,0,1.8-.1,35.83,35.83,0,0,0,4.5-.9c1.6-.6,3.3-1.5,5-2a2.07,2.07,0,0,0,1-.6c.1-.1.2,0,.2.1-.3,0,.1.3-.2.4-.9.3-1.4,1.3-2.3,1.5a1.45,1.45,0,0,0-.7.2,25.89,25.89,0,0,0-4.2,3.2c-1.3,1.2-4,1.5-5.6,2.1a30.05,30.05,0,0,1-3.2.7,14.24,14.24,0,0,1-10.8-2.4,22.58,22.58,0,0,0-9.5-4.2,7.91,7.91,0,0,0-4.3.3,4.12,4.12,0,0,0-2.1,2.4.9.9,0,0,1-.5.1c-.2,0-.3-.2-.3-.4-.3.2-.2.2-.1.1m-5.6-7.9a31.13,31.13,0,0,1,4-2.2c1-.5,2.1-.6,3.1-1.1a5.85,5.85,0,0,1,2.2-.5c4.2-.4,8.5.6,12.6,1.7,1.8.5,3.5.6,5.2,1.1.3.1.5.3.8.4a25.59,25.59,0,0,1,3.4,1,11.14,11.14,0,0,0,3,.8c2.9.2,6,.1,9,.1a7.5,7.5,0,0,0,3-.9,9.86,9.86,0,0,1,2.4-.3.66.66,0,0,0,.4-.5c.2-.2.9.4.3.6a17.23,17.23,0,0,0-2.1.7c-1.8,1-4.6,2-6.6,2.9a10,10,0,0,1-2.4.4,16.71,16.71,0,0,1-9.9-.1c-1.8-.7-3.4-1.2-5.2-1.8-1.6-.5-2.9-1.4-4.5-1.9-.2-.1-1.6-.5-1.9-.6-2.2-.4-4.6-.7-6.9-.9-1.7-.1-6.6,1.7-7.8,2.2a9.44,9.44,0,0,0-.9.3c-.5.3-.9.7-1.4,1a18,18,0,0,0-2,1.8,3.27,3.27,0,0,0-1.1,1.5,3.4,3.4,0,0,0,.1,1c0,.2-.3.4-.5.4h-.1a.66.66,0,0,1-.1-.6,9.2,9.2,0,0,1,3.9-6.5m8,10.4a2.92,2.92,0,0,1,.9-.2,1,1,0,0,1-.6,1.3,23.79,23.79,0,0,0-3.5,6.7l-1,1.3c-1,.4-2-.4-2.9-.5-.2-.4-.4-.7,0-1a2.46,2.46,0,0,0,1.2.1,5,5,0,0,0,1.3.3c.3-.8,0-1.7.6-2.2a.9.9,0,0,1,.1-.5c.6-.8.8-1.9,1.5-2.6a6.36,6.36,0,0,1,2.4-2.7m-8.1.2v-.2c.2-.4.5-.2.8-.1l.1-.1a5.44,5.44,0,0,0,1.8,0,5.29,5.29,0,0,1,2.1,1.1,5,5,0,0,1,.2,1.2,2.19,2.19,0,0,1-1.4.8c-.4-.6-1.5-.7-1.3-1.6a4.93,4.93,0,0,1-2.3-1.1"/><path class="cls-4" d="M214.8,213.5a4.1,4.1,0,1,1-4.2,4.1,4.21,4.21,0,0,1,4.2-4.1h0m0,.7a3.45,3.45,0,1,0,3.4,3.5v-.1a3.27,3.27,0,0,0-3.2-3.4h-.2M214,220h-.7v-4.7h1.8c1.1,0,1.7.4,1.7,1.4a1.23,1.23,0,0,1-1.1,1.3h-.1l1.4,2.1h-.8l-1.3-2.1h-1l.1,2Zm0-2.6h.9c.9,0,1.2-.2,1.2-.8s-.2-.7-1-.7h-1l-.1,1.5Z"/><path class="cls-4" d="M103.3,214.6h8.8c3.4,0,5.7,1,5.7,3.7a3.21,3.21,0,0,1-1.7,3,4,4,0,0,1,2.3,3.6c0,2.8-2.2,4.2-5.8,4.2h-9.3V214.6Zm9,5.8c1.9,0,2.7-.5,2.7-1.7s-.8-1.7-2.7-1.7h-6.1v3.4Zm.1,6.4c1.8,0,3.2-.4,3.2-2.1,0-1.5-1.2-2-3.2-2h-6.2v4.1Z"/><path class="cls-4" d="M126,214.6h8.8c3.4,0,5.9.8,5.9,4.4a4.14,4.14,0,0,1-4,4.3h-.1l4.5,5.9h-3.5l-4.2-5.8h-4.5v5.8h-2.8l-.1-14.6Zm8.3,6.5c2.3,0,3.5-.3,3.5-2.1s-1.2-2.1-3.5-2.1h-5.5V221h5.5Z"/><polygon class="cls-4" points="148.7 214.6 161.7 214.6 161.7 217 151.5 217 151.5 220.4 160.3 220.4 160.3 222.9 151.5 222.9 151.5 226.7 162 226.7 162 229.2 148.7 229.2 148.7 214.6"/><path class="cls-4" d="M174.7,214.6h3.2l7.1,14.6h-3l-1.5-3.4h-8.4l-1.6,3.4h-3Zm4.7,8.8-3.1-6.5-3.1,6.5Z"/><path class="cls-4" d="M191.8,214.6h7c4.6,0,8.3,2,8.3,7.2,0,5-3.4,7.4-8.2,7.4h-7.1V214.6Zm5.7,12.1c4.9,0,6.8-1.5,6.8-4.9,0-3.6-2-4.8-6.8-4.8h-2.9v9.7Z"/><path class="cls-4" d="M254,173.3c-6.5.4-12.1,4.2-16.5,8.8a36.64,36.64,0,0,0-5.9,7.7c-.6,1.1-2.5,4.9.2,4.6a12.4,12.4,0,0,0,4.9-2c1.5-1,3-2,4.4-3a52.15,52.15,0,0,0,8.1-6.8,29.81,29.81,0,0,0,3-4,18.72,18.72,0,0,1,2-2.9,4.42,4.42,0,0,1,2.9-1.9,3.37,3.37,0,0,1,1.7.5,11.4,11.4,0,0,1,1.9,1c2.8,2.1,1.6,6.4,1.1,9.3a26.26,26.26,0,0,0-.2,5.6c.1,1.4.4,4.2,2.2,5.9a7.55,7.55,0,0,0,1.4,1.1c.6.5-.8.9-1.1.9-3.1.5-4.6-.2-5.7-1-3.4-2.6-4.3-6.8-6.1-10.3-2.9,2.2-5.9,4.4-9.1,6.4-1.6,1-3.2,1.9-4.9,2.8a20.32,20.32,0,0,1-4.6,1.9c-2.8.7-5.9.1-7.6-2.5s-.9-5.8-.2-8.5a22.86,22.86,0,0,1,3.1-7.4,26.66,26.66,0,0,1,6.7-6.7,23.49,23.49,0,0,1,14.7-4.5c1.4.1,3.1.2,4.1,1.2,1.4,1.1.4,2.8-.5,3.8"/><path class="cls-4" d="M228.3,166.5a3.77,3.77,0,0,1,2.9,2.8,1.58,1.58,0,0,1-1,1.9,1.27,1.27,0,0,1-.6.1,20.25,20.25,0,0,1-3.3-.9,6.61,6.61,0,0,0-4.1,1,21,21,0,0,0-6.9,6,17.34,17.34,0,0,0-3.2,8.4c-.3,1.9-.4,3.8-.8,5.8a19,19,0,0,1-2,6.1,3.85,3.85,0,0,1-4.8,2,5.51,5.51,0,0,1-3.7-4.8,20.63,20.63,0,0,1,.9-7.4c.6-2.4,1.5-4.6,2.1-7a47.55,47.55,0,0,0,1.6-9.9,28.1,28.1,0,0,0,.1-2.9,6.05,6.05,0,0,1,0-1.9c.2-.6.7-.3,1.1-.1a11,11,0,0,1,2.6,3.1,7.08,7.08,0,0,1,1.5,3.3c4.5-4,11.3-6.9,17.6-5.6"/><path class="cls-4" d="M149.3,172.8a21.49,21.49,0,0,0-4.1,3.2c-1.5,1.9-3.2,3.5-4.4,5.6-1,1.8-2,4.1-2.9,6-1.1,2.3-1.9,5.9-3.2,8.1-1.2,2-3.2,2.6-5.5,2.2-1.4-.3-1.9-1.3-2.3-2.5a11.09,11.09,0,0,1-.4-5.1c.4-3.6,1.8-6.9,3.1-10.2a22.85,22.85,0,0,0,1.5-5.7c.1-1.2.1-2.2-.9-2.9-.8-.5-1.6-1-2.4-1.4a5.55,5.55,0,0,1-2.3-1.7c-.4-.6.8-1,1.2-1a7.77,7.77,0,0,1,3,.4,28.65,28.65,0,0,1,5.7,2.4,6.18,6.18,0,0,1,2.6,2.7,11.56,11.56,0,0,1,.7,3.7c.1.9-.3,2.7,0,3.6,3.3-5.2,8.6-10.5,14.9-11.4,1.6-.2,3.2.1,3.8,1.7a9.2,9.2,0,0,1,0,5.2c-.4,1.9-1.2,4.7-1.6,6.2-1.6,7-.9,11.2.8,14.5.3.6.8,2,.4,2.7-.3.5-1,.2-1.4.1-1.6-.6-7-2.2-8.4-7.9-1.5-6,2.5-16.2,2.9-17.3.2-1.3-.2-1.4-.8-1.2"/><path class="cls-4" d="M111.9,170.2c.7,2.4-1.4,3.4-3.3,4.1a33,33,0,0,0-8.3,4.9c-2.9,2.1-6,4.1-8.3,6.8a25.89,25.89,0,0,0-3.2,4.2,12,12,0,0,0-2,4.1c2.7.3,5.4-.8,7.7-2.2a51,51,0,0,0,7.3-5.7c1.1-1,2.2-1.9,3.3-2.9a21.8,21.8,0,0,0,2.8-2.5,19.12,19.12,0,0,0,1.6-3.2,5.65,5.65,0,0,1,2.7-2.8,5.27,5.27,0,0,1,6.7,2.6,6.07,6.07,0,0,1,.3,4.2c-.4,1.7-.9,3.3-1.2,5a9.32,9.32,0,0,0,.2,4.4c.4.9.8,1.8,1.3,2.7s2.5,4.2.9,4.9c-2.9.4-6.1-1.9-8.1-3.8s-4.7-4.9-4.4-8c-2.9,2.3-6,4.5-9.1,6.5a39.76,39.76,0,0,1-5,2.7,21.34,21.34,0,0,1-4.9,1.5,6.41,6.41,0,0,1-6.2-2.5,9.3,9.3,0,0,1-.9-7.3,25.75,25.75,0,0,1,4.3-8.6,26.45,26.45,0,0,1,13.2-9.6,31.14,31.14,0,0,1,6.7-1.6c2-.3,5.1-.3,5.9,2.1"/><path class="cls-4" d="M89.7,158.6c-2.5-2.5-16.2-2.1-24.8-.8-.6.1-.4,1.9-.4,2.4.1,1.5.3,3,.4,4.5.3,3.6.6,7.1,1.2,10.6a61.38,61.38,0,0,0,20.1-10.4c2.5-2.2,4.4-5.4,3.5-6.3m4.2-4.9a5.61,5.61,0,0,1,2.6,3.6c.4,1.6-.1,5.7-6.7,10.3-4.6,3.2-13,7.1-21.2,9.8a6.12,6.12,0,0,0-1.2.5l-.6.2c-.4.1-.4.2-.3.6a31.89,31.89,0,0,0,1.2,6c.4,1.4.8,2.7,1.2,4l1.2,3.3c.6,1.9,1.4,4.6,0,6.4a5.18,5.18,0,0,1-3.3,1.6,8.26,8.26,0,0,1-4.4-.5,9.78,9.78,0,0,1-5.7-5.4c-1.5-3-.5-17.4.3-21,.4-1.9.7-3.9,1-5.8.3-1.7,1.8-8.7,1.4-8.9a17.5,17.5,0,0,0-5.5,1.2,20.81,20.81,0,0,0-3.8,2.2,4,4,0,0,1-3.7,0,9.42,9.42,0,0,1-5.7-6.7c-.4-2,1.3-4,4-5a32.19,32.19,0,0,1,7.5-1.5c12-1.4,32.7.2,41.7,5.1"/><path class="cls-4" d="M190.6,176.3c1.4-1.3-2-2.3-2.7-2.4a14.7,14.7,0,0,0-8.3.6,25,25,0,0,0-5.3,3c-.8.6-3,2.1-2.5,3.4,5.1,1,15.1-1.3,18.8-4.6m3.6-6.3a5.52,5.52,0,0,1,1.6,3.9,7.26,7.26,0,0,1-1.6,3.7,13.14,13.14,0,0,1-6,3.8,43,43,0,0,1-17.8,2.5,5.51,5.51,0,0,0,1.2,3.9,5.77,5.77,0,0,0,3.3,1.4c3.4.2,6.9-1,10-2.1s6.4-2.6,9.6-3.9a9.61,9.61,0,0,1,2.9-.8c1.1,0,.8,1.5.6,2.3-.7,2.2-2.7,3.8-4.5,5.1a57.28,57.28,0,0,1-6.2,3.8,54.61,54.61,0,0,1-7.8,3.5c-3.2,1.1-6.9,1.9-10.3,1.2a8.69,8.69,0,0,1-6.1-4.6,10.79,10.79,0,0,1-.5-7.5,19.93,19.93,0,0,1,5.1-8.3,32,32,0,0,1,7.4-5.9,34,34,0,0,1,10.2-3.8c3-.7,6.8-.8,8.9,1.8"/></svg>